<?xml version="1.0" standalone="no"?>
<!DOCTYPE svg PUBLIC "-//W3C//DTD SVG 20010904//EN"
 "http://www.w3.org/TR/2001/REC-SVG-20010904/DTD/svg10.dtd">
<svg version="1.0" xmlns="http://www.w3.org/2000/svg"
 width="512.000000pt" height="512.000000pt" viewBox="0 0 512.000000 512.000000"
 preserveAspectRatio="xMidYMid meet">

<g transform="translate(0.000000,512.000000) scale(0.100000,-0.100000)"
fill="#000000" stroke="none">
<path d="M2508 5102 c-15 -9 -106 -84 -202 -167 -212 -182 -235 -219 -180
-284 29 -35 81 -49 115 -30 13 7 89 68 168 137 114 99 147 122 161 116 10 -5
118 -97 242 -204 l224 -195 -958 -5 -958 -5 -27 -28 -28 -27 0 -760 0 -760 26
-25 c14 -14 41 -28 61 -31 30 -5 41 -1 69 24 l34 30 3 691 2 691 1028 0 c958
0 1029 1 1062 18 49 24 68 77 45 123 -10 22 -150 150 -386 354 -203 176 -382
328 -397 337 -15 10 -38 18 -52 18 -14 0 -37 -8 -52 -18z"/>
<path d="M3938 4460 c-260 -44 -488 -216 -598 -451 -98 -210 -98 -468 0 -678
119 -254 377 -433 657 -458 110 -9 163 23 163 99 -1 58 -48 98 -117 98 -172 1
-372 111 -472 259 -166 245 -136 556 74 766 248 248 651 227 880 -46 99 -118
135 -237 135 -447 0 -126 -2 -142 -21 -166 -59 -75 -161 -72 -209 7 -18 29
-20 52 -20 272 -1 169 -4 246 -13 262 -17 31 -84 82 -142 109 -203 94 -454 21
-576 -169 -49 -75 -71 -153 -71 -247 0 -131 41 -230 133 -322 136 -136 340
-174 513 -95 35 16 58 22 62 15 14 -23 100 -68 153 -80 52 -11 69 -24 223
-160 l168 -147 -398 -289 -397 -290 -5 150 -5 150 -34 30 c-28 25 -39 29 -70
24 -23 -3 -46 -17 -63 -36 l-28 -30 0 -218 0 -218 -322 -235 c-177 -129 -345
-251 -374 -271 l-51 -37 -254 185 c-139 102 -264 187 -276 190 -13 4 -33 4
-46 0 -12 -3 -137 -88 -276 -190 l-254 -185 -51 37 c-467 335 -1686 1228
-1684 1232 2 4 135 123 296 264 296 260 298 263 293 326 -3 36 -54 80 -94 80
-38 0 -38 0 -464 -368 -159 -138 -286 -255 -292 -270 -8 -20 -11 -417 -9
-1439 l3 -1413 28 -27 27 -28 2495 -3 2495 -2 32 29 33 29 3 1414 c2 1039 -1
1420 -9 1441 -6 15 -92 97 -191 183 l-179 156 39 42 c22 24 49 69 62 102 20
55 22 71 17 244 -3 157 -7 195 -27 255 -79 244 -251 430 -481 520 -122 48
-286 66 -411 45z m235 -556 l37 -18 0 -216 0 -216 -37 -18 c-128 -61 -287 -3
-343 126 -63 145 9 306 158 355 48 16 137 10 185 -13z m-3150 -1824 c443 -322
806 -588 806 -591 1 -5 -1576 -1158 -1615 -1182 -12 -7 -14 185 -14 1178 0
707 4 1185 9 1183 5 -1 372 -266 814 -588z m3897 -595 c0 -993 -2 -1185 -14
-1178 -39 24 -1616 1177 -1615 1182 0 7 1611 1180 1622 1180 4 1 7 -532 7
-1184z m-1280 -505 l1072 -780 -2152 0 -2152 0 1068 779 c588 428 1074 779
1080 780 7 1 494 -350 1084 -779z"/>
<path d="M1534 3950 c-56 -22 -72 -108 -30 -157 l24 -28 531 -3 530 -3 33 30
c27 24 33 36 33 71 0 35 -6 47 -33 71 l-32 29 -518 -1 c-284 0 -527 -4 -538
-9z"/>
<path d="M1534 3450 c-56 -22 -72 -108 -30 -157 l24 -28 528 -3 c555 -3 569
-2 599 42 17 24 20 79 5 107 -26 48 -33 49 -587 48 -285 0 -528 -4 -539 -9z"/>
<path d="M1533 2956 c-64 -29 -76 -111 -24 -158 l31 -28 308 0 c276 0 309 2
328 18 52 41 55 109 8 153 l-26 24 -296 2 c-238 2 -303 0 -329 -11z"/>
<path d="M2575 2961 c-78 -24 -101 -107 -46 -162 73 -73 193 0 160 98 -15 48
-70 79 -114 64z"/>
<path d="M3015 2963 c-54 -13 -89 -87 -65 -134 27 -53 45 -59 187 -59 131 0
133 0 164 28 53 47 39 130 -26 158 -33 14 -212 18 -260 7z"/>
<path d="M1130 2619 c-78 -31 -92 -118 -26 -171 49 -40 136 -8 152 56 17 70
-60 141 -126 115z"/>
</g>
</svg>
