<?xml version="1.0" standalone="no"?>
<!DOCTYPE svg PUBLIC "-//W3C//DTD SVG 20010904//EN"
 "http://www.w3.org/TR/2001/REC-SVG-20010904/DTD/svg10.dtd">
<svg version="1.0" xmlns="http://www.w3.org/2000/svg"
 width="512.000000pt" height="512.000000pt" viewBox="0 0 512.000000 512.000000"
 preserveAspectRatio="xMidYMid meet">

<g transform="translate(0.000000,512.000000) scale(0.100000,-0.100000)"
fill="#000000" stroke="none">
<path d="M1910 4680 c-344 -48 -643 -265 -794 -576 l-38 -79 -102 -22 c-481
-106 -848 -480 -953 -973 -22 -103 -24 -340 -4 -445 53 -282 182 -514 390
-705 l90 -83 -6 -96 c-19 -329 155 -628 452 -775 117 -58 186 -76 320 -83 118
-6 189 3 296 38 l66 22 80 -69 c237 -205 525 -337 838 -385 118 -18 371 -15
485 5 489 86 889 359 1140 776 l50 83 103 3 c395 11 717 291 784 683 15 85 16
114 5 204 -32 290 -191 521 -447 653 l-60 31 -2 109 c-9 388 -181 730 -488
966 -161 125 -380 216 -594 248 -125 19 -331 8 -456 -24 -55 -14 -103 -26
-106 -26 -4 0 -32 35 -63 79 -154 220 -387 374 -642 425 -101 20 -261 27 -344
16z m360 -220 c163 -46 327 -154 430 -283 27 -34 74 -109 103 -167 l53 -106
90 37 c172 69 338 95 513 78 248 -23 473 -131 647 -311 245 -253 338 -553 287
-925 -5 -36 -3 -43 11 -43 26 0 137 -40 197 -72 127 -66 243 -206 290 -349 20
-63 24 -93 24 -199 -1 -104 -5 -136 -24 -190 -56 -158 -166 -283 -314 -355
-135 -65 -247 -78 -432 -50 l-40 6 -42 -88 c-154 -326 -459 -603 -803 -728
-224 -81 -490 -105 -719 -66 -196 33 -380 103 -529 199 -94 61 -140 99 -244
201 l-97 95 -88 -41 c-110 -51 -171 -65 -281 -65 -170 0 -308 58 -433 182 -61
60 -84 92 -116 160 -23 47 -46 107 -52 134 -17 68 -14 220 4 289 8 32 15 64
15 70 0 7 -34 37 -75 66 -94 68 -221 199 -280 291 -112 172 -165 355 -165 568
0 172 30 301 106 456 55 112 124 204 218 294 174 165 364 254 606 283 55 7
100 16 100 20 0 4 14 47 32 95 36 100 123 236 195 306 111 108 271 192 423
224 95 20 294 12 390 -16z"/>
</g>
</svg>
